<?xml version="1.0" encoding="UTF-8" standalone="no"?>
<svg
   height="16px"
   viewBox="0 0 16 16"
   width="16px"
   version="1.1"
   id="svg2"
   sodipodi:docname="applications-engineering-symbolic.svg"
   inkscape:version="1.4.2 (ebf0e940d0, 2025-05-08)"
   xmlns:inkscape="http://www.inkscape.org/namespaces/inkscape"
   xmlns:sodipodi="http://sodipodi.sourceforge.net/DTD/sodipodi-0.dtd"
   xmlns="http://www.w3.org/2000/svg"
   xmlns:svg="http://www.w3.org/2000/svg">
  <defs
     id="defs2" />
  <sodipodi:namedview
     id="namedview2"
     pagecolor="#ffffff"
     bordercolor="#000000"
     borderopacity="0.25"
     inkscape:showpageshadow="2"
     inkscape:pageopacity="0.0"
     inkscape:pagecheckerboard="0"
     inkscape:deskcolor="#d1d1d1"
     inkscape:zoom="25"
     inkscape:cx="8.3"
     inkscape:cy="10.84"
     inkscape:window-width="1920"
     inkscape:window-height="1011"
     inkscape:window-x="0"
     inkscape:window-y="0"
     inkscape:window-maximized="1"
     inkscape:current-layer="svg2" />
  <g
     fill="#2e3436"
     id="g2"
     transform="matrix(0.75003539,0,0,0.74998505,2,2)">
    <path
       d="M 7.996094,8 C 4,8 2,11 2,14 H 0.25 C 0,14 0,14.15625 0,14.25 v 1.5 C 0,16 0.136719,16 0.25,16 h 15.492188 c 0.195312,0.0078 0.25,-0.128906 0.25,-0.25 v -1.5 c 0.02344,-0.144531 0,-0.25 -0.25,-0.25 h -1.746094 c 0,-3 -2,-6 -6,-6 z m 0,3 c 2.351562,0 3,1.761719 3,3 H 5 c 0,-1.199219 0.699219,-3 2.996094,-3 z m 0,0"
       fill-rule="evenodd"
       id="path1" />
    <path
       d="m 14.988281,0.601562 c -0.28125,-0.242187 -0.625,-0.421874 -0.964843,-0.5624995 L 14,2.269531 C 13.996094,2.730469 13.546875,3 12.996094,3 h -1 c -0.554688,-0.00781 -1.003906,-0.308594 -1,-0.769531 L 11.019531,0 C 10.671875,0.132812 10.328125,0.304688 10.042969,0.535156 8.664062,1.652344 8.644531,3.484375 10,4.632812 10.285156,4.875 10.625,5.054688 10.96875,5.195312 10.996094,5.207031 10.996094,7.25 10.996094,7.25 12.484375,8 13.347656,9 13.996094,10 V 5.25 C 14.339844,5.117188 14.660156,4.929688 14.949219,4.699219 16.328125,3.582031 16.34375,1.75 14.988281,0.601562 Z m 0,0"
       id="path2" />
  </g>
</svg>
